<svg width="25" height="23" viewBox="0 0 25 23" fill="none" xmlns="http://www.w3.org/2000/svg">
<path d="M11.5363 22.5825C11.2538 22.3042 11.1059 21.9499 11.0925 21.5198C11.0802 21.0897 11.2153 20.7354 11.4978 20.4571L19.0483 13.0182H1.82843C1.39183 13.0182 1.02561 12.8724 0.729748 12.5809C0.434916 12.2905 0.2875 11.9301 0.2875 11.5C0.2875 11.0699 0.434916 10.709 0.729748 10.4176C1.02561 10.1271 1.39183 9.98185 1.82843 9.98185H19.0483L11.4978 2.5429C11.2153 2.26458 11.0802 1.91034 11.0925 1.4802C11.1059 1.05005 11.2538 0.695819 11.5363 0.417491C11.8188 0.139163 12.1784 0 12.6149 0C13.0515 0 13.4111 0.139163 13.6936 0.417491L23.8637 10.4373C24.0178 10.5638 24.1272 10.7217 24.192 10.911C24.2557 11.1012 24.2875 11.2976 24.2875 11.5C24.2875 11.7024 24.2557 11.8922 24.192 12.0693C24.1272 12.2464 24.0178 12.4109 23.8637 12.5627L13.6936 22.5825C13.4111 22.8608 13.0515 23 12.6149 23C12.1784 23 11.8188 22.8608 11.5363 22.5825Z" fill="#F2F2F2"/>
</svg>
