<svg width="60" height="55" viewBox="0 0 60 55" fill="none" xmlns="http://www.w3.org/2000/svg">
<path d="M0 9.11462V45.5731C0 47.9905 0.77783 50.3088 2.16238 52.0181C3.54692 53.7275 5.42477 54.6878 7.38281 54.6878H51.6797C53.6377 54.6878 55.5156 53.7275 56.9001 52.0181C58.2847 50.3088 59.0625 47.9905 59.0625 45.5731V9.11462C59.0625 6.69728 58.2847 4.37894 56.9001 2.66961C55.5156 0.960288 53.6377 0 51.6797 0H7.38281C5.42477 0 3.54692 0.960288 2.16238 2.66961C0.77783 4.37894 0 6.69728 0 9.11462ZM15.766 13.9226C16.0679 13.7307 16.4068 13.6453 16.7455 13.6758C17.0842 13.7064 17.4094 13.8517 17.6855 14.0958L29.5312 24.5457V15.9506C29.5315 15.5323 29.6249 15.1222 29.8014 14.7652C29.9778 14.4081 30.2305 14.1179 30.5317 13.9264C30.8328 13.7348 31.1709 13.6493 31.5088 13.6792C31.8467 13.709 32.1715 13.8532 32.4475 14.0958L45.3674 25.489C45.6066 25.6998 45.8017 25.9781 45.9362 26.3007C46.0708 26.6234 46.141 26.981 46.141 27.3439C46.141 27.7068 46.0708 28.0644 45.9362 28.387C45.8017 28.7096 45.6066 28.9879 45.3674 29.1987L32.4475 40.592C32.1715 40.8346 31.8467 40.9787 31.5088 41.0086C31.1709 41.0385 30.8328 40.9529 30.5317 40.7614C30.2305 40.5698 29.9778 40.2796 29.8014 39.9226C29.6249 39.5655 29.5315 39.1554 29.5312 38.7372V30.1421L17.6818 40.592C17.4059 40.8346 17.0811 40.9787 16.7432 41.0086C16.4053 41.0385 16.0672 40.9529 15.766 40.7614C15.4649 40.5698 15.2122 40.2796 15.0357 39.9226C14.8593 39.5655 14.7658 39.1554 14.7656 38.7372V15.9506C14.7653 15.5317 14.8585 15.1208 15.0349 14.763C15.2114 14.4052 15.4644 14.1144 15.766 13.9226Z" fill="white"/>
</svg>
