<svg width="238" height="40" viewBox="0 0 238 40" fill="none" xmlns="http://www.w3.org/2000/svg">
<path d="M51.8286 25.2362V12.9626C51.8286 12.7067 51.9205 12.4869 52.1043 12.3031C52.2882 12.1194 52.5081 12.0276 52.7641 12.0276H54.5958C54.865 12.0276 55.0882 12.1194 55.2655 12.3031C55.4493 12.4869 55.5412 12.7067 55.5412 12.9626V25.2165C55.5412 25.4724 55.446 25.6923 55.2556 25.876C55.0718 26.0531 54.8519 26.1417 54.5958 26.1417H52.7641C52.5081 26.1417 52.2882 26.0564 52.1043 25.8858C51.9205 25.7087 51.8286 25.4921 51.8286 25.2362Z" fill="#F2F2F2"/>
<path d="M58.3675 25.2165V12.9626C58.3675 12.7067 58.4561 12.4869 58.6334 12.3031C58.8107 12.1194 59.0273 12.0276 59.2833 12.0276H62.1786C62.4084 12.0276 62.6513 12.1194 62.9073 12.3031C63.1634 12.4869 63.3734 12.7067 63.5376 12.9626L69.4856 22.1063V12.9429C69.4856 12.687 69.5742 12.4705 69.7515 12.2933C69.9353 12.1161 70.1552 12.0276 70.4113 12.0276H72.1051C72.3611 12.0276 72.5778 12.1161 72.755 12.2933C72.9389 12.4705 73.0308 12.6936 73.0308 12.9626V25.2165C73.0308 25.4724 72.9389 25.6923 72.755 25.876C72.5778 26.0531 72.3611 26.1417 72.1051 26.1417H68.8356C68.5796 26.1417 68.317 26.0531 68.0478 25.876C67.7787 25.6923 67.5653 25.4724 67.4077 25.2165L61.9619 16.7717V25.2165C61.9619 25.4724 61.87 25.6923 61.6862 25.876C61.5089 26.0531 61.2923 26.1417 61.0362 26.1417H59.303C59.047 26.1417 58.8271 26.0531 58.6432 25.876C58.4594 25.6923 58.3675 25.4724 58.3675 25.2165Z" fill="#F2F2F2"/>
<path d="M74.6458 13.8878V12.9626C74.6458 12.6936 74.7344 12.4705 74.9117 12.2933C75.089 12.1161 75.3122 12.0276 75.5813 12.0276H88.0781C88.3473 12.0276 88.5705 12.1161 88.7478 12.2933C88.925 12.4705 89.0137 12.6936 89.0137 12.9626V13.8878C89.0137 14.1568 88.925 14.3799 88.7478 14.5571C88.5705 14.7277 88.3473 14.813 88.0781 14.813H83.686V25.2362C83.686 25.4921 83.5941 25.7087 83.4103 25.8858C83.233 26.0564 83.0164 26.1417 82.7603 26.1417H80.8991C80.6431 26.1417 80.4231 26.0564 80.2393 25.8858C80.0621 25.7087 79.9734 25.4921 79.9734 25.2362V14.813H75.5813C75.3122 14.813 75.089 14.7277 74.9117 14.5571C74.7344 14.3799 74.6458 14.1568 74.6458 13.8878Z" fill="#F2F2F2"/>
<path d="M90.6287 25.1968V12.9429C90.6287 12.687 90.7206 12.4705 90.9044 12.2933C91.0882 12.1161 91.3082 12.0276 91.5642 12.0276H102.919C103.175 12.0276 103.391 12.1194 103.569 12.3031C103.752 12.4869 103.844 12.7067 103.844 12.9626V13.8878C103.844 14.1437 103.752 14.3635 103.569 14.5472C103.391 14.7244 103.175 14.813 102.919 14.813H94.3413V17.6772H101.727C101.983 17.6772 102.2 17.769 102.377 17.9528C102.561 18.1299 102.653 18.3465 102.653 18.6024V19.5276C102.653 19.7835 102.561 20.0033 102.377 20.187C102.2 20.3642 101.983 20.4528 101.727 20.4528H94.3413V23.3563H102.899C103.148 23.3563 103.362 23.4449 103.539 23.622C103.716 23.7992 103.805 24.0157 103.805 24.2717V25.2165C103.805 25.4724 103.713 25.6923 103.529 25.876C103.345 26.0531 103.125 26.1417 102.869 26.1417H91.5642C91.3082 26.1417 91.0882 26.0531 90.9044 25.876C90.7206 25.6923 90.6287 25.4659 90.6287 25.1968Z" fill="#F2F2F2"/>
<path d="M120.32 25.7185C120.32 26.0007 120.152 26.1417 119.817 26.1417H117.454C117.204 26.1417 116.929 26.0531 116.627 25.876C116.331 25.6923 116.105 25.4724 115.947 25.2165L114.273 22.5984C113.584 21.5223 112.75 20.9843 111.772 20.9843H109.369V25.2165C109.369 25.4724 109.277 25.6923 109.093 25.876C108.916 26.0531 108.699 26.1417 108.443 26.1417H106.592C106.336 26.1417 106.116 26.0531 105.932 25.876C105.748 25.6923 105.656 25.4724 105.656 25.2165V12.9626C105.656 12.7067 105.745 12.4869 105.922 12.3031C106.099 12.1194 106.316 12.0276 106.572 12.0276H114.697C116.2 12.0276 117.431 12.4311 118.389 13.2382C119.355 14.0453 119.837 15.1345 119.837 16.5059C119.837 18.4154 118.6 19.6129 116.124 20.0984C116.518 20.2428 116.883 20.4921 117.218 20.8465C117.552 21.1942 117.936 21.7028 118.37 22.372L120.162 25.2165C120.267 25.4003 120.32 25.5676 120.32 25.7185ZM109.369 18.1988H113.564C114.24 18.1988 114.834 18.0643 115.346 17.7953C115.865 17.5262 116.124 17.0965 116.124 16.5059C116.124 15.9154 115.865 15.4856 115.346 15.2165C114.834 14.9475 114.24 14.813 113.564 14.813H109.369V18.1988Z" fill="#F2F2F2"/>
<path d="M120.802 25.2362L123.274 15.8661C123.944 13.3136 126.123 12.0341 129.813 12.0276H135.121C135.364 12.0276 135.564 12.1194 135.721 12.3031C135.886 12.4869 135.968 12.7001 135.968 12.9429V25.2362C135.968 25.4921 135.876 25.7087 135.692 25.8858C135.508 26.0564 135.288 26.1417 135.032 26.1417H133.181C132.912 26.1417 132.688 26.0564 132.511 25.8858C132.34 25.7087 132.255 25.4856 132.255 25.2165V22.7362H125.253L124.594 25.2165C124.528 25.4856 124.38 25.7087 124.15 25.8858C123.921 26.0564 123.678 26.1417 123.422 26.1417H121.482C121.226 26.1417 121.042 26.0696 120.93 25.9252C120.819 25.7743 120.763 25.643 120.763 25.5315C120.769 25.4199 120.782 25.3215 120.802 25.2362ZM125.982 19.9508H132.255V14.813H129.448C128.818 14.813 128.267 14.9934 127.794 15.3543C127.328 15.7087 127.013 16.1877 126.849 16.7913L125.982 19.9508Z" fill="#F2F2F2"/>
<path d="M139.798 24.4783C138.584 23.3169 137.977 21.5223 137.977 19.0945C137.977 16.6601 138.584 14.8622 139.798 13.7008C141.02 12.5328 142.848 11.9488 145.284 11.9488H147.48C148.97 11.9488 150.286 12.336 151.429 13.1102C152.577 13.8845 153.152 14.9442 153.152 16.2894C153.152 16.6765 153.037 16.9554 152.807 17.126C152.577 17.29 152.354 17.372 152.138 17.372H150.966C150.362 17.372 149.892 17.0112 149.558 16.2894C149.072 15.2526 148.264 14.7343 147.135 14.7343H145.382C143.944 14.7343 142.969 15.0427 142.457 15.6594C141.945 16.2762 141.689 17.418 141.689 19.0846C141.689 20.7513 141.945 21.8963 142.457 22.5197C142.969 23.1365 143.944 23.4449 145.382 23.4449H147.342C148.471 23.4449 149.275 22.9265 149.754 21.8898C150.089 21.1614 150.562 20.7972 151.173 20.7972H152.344C152.653 20.7972 152.896 20.9121 153.073 21.1417C153.257 21.3714 153.349 21.6207 153.349 21.8898C153.349 23.2349 152.778 24.2946 151.635 25.0689C150.493 25.8366 149.177 26.2205 147.686 26.2205H145.284C142.848 26.2205 141.02 25.6398 139.798 24.4783Z" fill="#F2F2F2"/>
<path d="M153.861 13.8878V12.9626C153.861 12.6936 153.95 12.4705 154.127 12.2933C154.304 12.1161 154.527 12.0276 154.797 12.0276H167.293C167.562 12.0276 167.786 12.1161 167.963 12.2933C168.14 12.4705 168.229 12.6936 168.229 12.9626V13.8878C168.229 14.1568 168.14 14.3799 167.963 14.5571C167.786 14.7277 167.562 14.813 167.293 14.813H162.901V25.2362C162.901 25.4921 162.809 25.7087 162.625 25.8858C162.448 26.0564 162.232 26.1417 161.976 26.1417H160.114C159.858 26.1417 159.638 26.0564 159.454 25.8858C159.277 25.7087 159.189 25.4921 159.189 25.2362V14.813H154.797C154.527 14.813 154.304 14.7277 154.127 14.5571C153.95 14.3799 153.861 14.1568 153.861 13.8878Z" fill="#F2F2F2"/>
<path d="M169.844 25.2362V12.9626C169.844 12.7067 169.936 12.4869 170.12 12.3031C170.303 12.1194 170.523 12.0276 170.779 12.0276H172.611C172.88 12.0276 173.103 12.1194 173.281 12.3031C173.465 12.4869 173.556 12.7067 173.556 12.9626V25.2165C173.556 25.4724 173.461 25.6923 173.271 25.876C173.087 26.0531 172.867 26.1417 172.611 26.1417H170.779C170.523 26.1417 170.303 26.0564 170.12 25.8858C169.936 25.7087 169.844 25.4921 169.844 25.2362Z" fill="#F2F2F2"/>
<path d="M3.3351 28.2857V10.0952L0 12.1905V30.7619C0 34.5714 3.71625 36 5.8126 36H18.2001V40L32.4934 31.9048H6.6702C4.6882 31.5238 3.3351 30.2857 3.3351 28.2857Z" fill="url(#paint0_linear_96_3006)"/>
<path d="M33.3511 7.80952H7.43262L22.0118 0V4H34.7804C39.7354 4.57143 40.3389 8.47619 40.4025 10.1905V27.9048L36.6862 29.8095V13.9048C36.6862 9.42857 35.638 7.80952 33.3511 7.80952Z" fill="url(#paint1_linear_96_3006)"/>
<path d="M23.9938 18.3831C25.02 18.9538 25.0432 20.4209 24.0356 21.0238L19.4343 23.7769C18.4266 24.3798 17.1438 23.6664 17.1252 22.4927L17.0404 17.1334C17.0218 15.9598 18.2814 15.2061 19.3076 15.7769L23.9938 18.3831Z" fill="#F2F2F2"/>
<path d="M176.786 25.4724V13.2185C176.786 12.9626 176.875 12.7428 177.052 12.5591C177.23 12.3753 177.446 12.2835 177.702 12.2835H185.216C189.188 12.2835 191.174 14.1142 191.174 17.7756C191.174 21.4304 189.188 23.2579 185.216 23.2579H180.499V25.4724C180.499 25.7283 180.407 25.9482 180.223 26.1319C180.046 26.3091 179.829 26.3976 179.573 26.3976H177.722C177.466 26.3976 177.246 26.3091 177.062 26.1319C176.878 25.9482 176.786 25.7283 176.786 25.4724ZM180.499 20.4724H184.094C185.196 20.4724 186.034 20.2887 186.605 19.9213C187.176 19.5472 187.461 18.832 187.461 17.7756C187.461 16.7126 187.176 15.9974 186.605 15.6299C186.034 15.2559 185.196 15.0689 184.094 15.0689H180.499V20.4724Z" fill="url(#paint2_linear_96_3006)"/>
<path d="M192.996 25.4921V13.2382C192.996 12.9692 193.088 12.7428 193.272 12.5591C193.455 12.3753 193.675 12.2835 193.931 12.2835H195.783C196.039 12.2835 196.255 12.3753 196.433 12.5591C196.617 12.7428 196.708 12.9692 196.708 13.2382V23.6122H205.286C205.542 23.6122 205.759 23.7041 205.936 23.8878C206.12 24.0715 206.212 24.2913 206.212 24.5472V25.4724C206.212 25.7283 206.12 25.9482 205.936 26.1319C205.759 26.3091 205.542 26.3976 205.286 26.3976H193.931C193.675 26.3976 193.455 26.3123 193.272 26.1417C193.088 25.9646 192.996 25.748 192.996 25.4921Z" fill="url(#paint3_linear_96_3006)"/>
<path d="M206.665 25.4921L209.136 16.122C209.806 13.5696 211.986 12.29 215.675 12.2835H220.983C221.226 12.2835 221.426 12.3753 221.584 12.5591C221.748 12.7428 221.83 12.956 221.83 13.1988V25.4921C221.83 25.748 221.738 25.9646 221.554 26.1417C221.37 26.3123 221.151 26.3976 220.894 26.3976H219.043C218.774 26.3976 218.551 26.3123 218.373 26.1417C218.203 25.9646 218.117 25.7415 218.117 25.4724V22.9921H211.116L210.456 25.4724C210.39 25.7415 210.243 25.9646 210.013 26.1417C209.783 26.3123 209.54 26.3976 209.284 26.3976H207.344C207.088 26.3976 206.904 26.3255 206.793 26.1811C206.681 26.0302 206.625 25.899 206.625 25.7874C206.632 25.6759 206.645 25.5774 206.665 25.4921ZM211.844 20.2067H218.117V15.0689H215.311C214.681 15.0689 214.129 15.2493 213.656 15.6102C213.19 15.9646 212.875 16.4436 212.711 17.0472L211.844 20.2067Z" fill="url(#paint4_linear_96_3006)"/>
<path d="M223.435 12.7559C223.435 12.4409 223.606 12.2835 223.947 12.2835H225.818C226.56 12.2835 227.131 12.5951 227.532 13.2185L230.723 18.1299L233.903 13.2185C234.31 12.5951 234.882 12.2835 235.617 12.2835H237.498C237.833 12.2835 238 12.4409 238 12.7559C238 12.9003 237.947 13.0545 237.842 13.2185L232.574 21.3583V25.4921C232.574 25.748 232.482 25.9646 232.298 26.1417C232.121 26.3123 231.904 26.3976 231.648 26.3976H229.797C229.541 26.3976 229.321 26.3123 229.137 26.1417C228.953 25.9646 228.861 25.748 228.861 25.4921V21.3583L223.603 13.2185C223.491 13.0545 223.435 12.9003 223.435 12.7559Z" fill="url(#paint5_linear_96_3006)"/>
<defs>
<linearGradient id="paint0_linear_96_3006" x1="3.05317e-07" y1="11.289" x2="32.479" y2="38.8232" gradientUnits="userSpaceOnUse">
<stop stop-color="#00FFF1"/>
<stop offset="1" stop-color="#2813A4"/>
</linearGradient>
<linearGradient id="paint1_linear_96_3006" x1="11.3633" y1="-1.57541e-07" x2="36.4562" y2="29.8226" gradientUnits="userSpaceOnUse">
<stop stop-color="#00FFF1"/>
<stop offset="1" stop-color="#2813A4"/>
</linearGradient>
<linearGradient id="paint2_linear_96_3006" x1="176.786" y1="19.3406" x2="238" y2="19.3406" gradientUnits="userSpaceOnUse">
<stop stop-color="#00FFF1"/>
<stop offset="1" stop-color="#2813A4"/>
</linearGradient>
<linearGradient id="paint3_linear_96_3006" x1="176.786" y1="19.3406" x2="238" y2="19.3406" gradientUnits="userSpaceOnUse">
<stop stop-color="#00FFF1"/>
<stop offset="1" stop-color="#2813A4"/>
</linearGradient>
<linearGradient id="paint4_linear_96_3006" x1="176.786" y1="19.3406" x2="238" y2="19.3406" gradientUnits="userSpaceOnUse">
<stop stop-color="#00FFF1"/>
<stop offset="1" stop-color="#2813A4"/>
</linearGradient>
<linearGradient id="paint5_linear_96_3006" x1="176.786" y1="19.3406" x2="238" y2="19.3406" gradientUnits="userSpaceOnUse">
<stop stop-color="#00FFF1"/>
<stop offset="1" stop-color="#2813A4"/>
</linearGradient>
</defs>
</svg>
