<svg width="20" height="24" viewBox="0 0 20 24" fill="none" xmlns="http://www.w3.org/2000/svg">
<g clip-path="url(#clip0_137_1361)">
<path d="M15.6224 5.78016C15.6224 7.36875 15.0535 8.74359 13.9312 9.86766C12.809 10.9913 11.4353 11.5608 9.84854 11.5608H9.84573C8.26135 11.5603 6.8886 10.9908 5.76633 9.86766C4.64359 8.74359 4.0752 7.36875 4.0752 5.78016C4.0752 4.19156 4.64406 2.81719 5.76633 1.69359C6.88813 0.57 8.26088 0.00046875 9.84573 0H9.84854C11.4348 0 12.808 0.569531 13.9312 1.69313C15.0535 2.81672 15.6224 4.19203 15.6224 5.77969V5.78016Z" fill="#070337"/>
<path d="M20 19.8727C20 21.1256 19.602 22.1405 18.8178 22.8877C18.0429 23.6259 17.0176 24 15.7712 24H4.22829C2.98195 24 1.9566 23.6259 1.1822 22.8877C0.3975 22.1395 0 21.1252 0 19.8727C0 19.3908 0.0159187 18.9141 0.0477562 18.4556C0.0800618 17.9869 0.145609 17.4769 0.242058 16.9387C0.339443 16.3964 0.464452 15.8831 0.614275 15.4144C0.769717 14.9292 0.979938 14.4506 1.24026 13.9922C1.51041 13.5164 1.82784 13.1016 2.18414 12.7603C2.5573 12.4031 3.01332 12.1162 3.54051 11.9072C4.06583 11.6991 4.64827 11.5936 5.27191 11.5936C5.5163 11.5936 5.75321 11.6939 6.20971 11.9916C6.49531 12.1781 6.82445 12.3905 7.18777 12.623C7.50146 12.8231 7.92659 13.0111 8.4519 13.1808C8.91355 13.3303 9.38268 13.4137 9.84573 13.4283C9.89676 13.4302 9.94779 13.4311 9.99883 13.4311C10.5129 13.4311 11.0331 13.3467 11.5462 13.1808C12.0715 13.0111 12.4971 12.8231 12.8108 12.623C13.1779 12.3881 13.5075 12.1758 13.7889 11.992C14.2459 11.6939 14.4823 11.5936 14.7272 11.5936C15.3499 11.5936 15.9323 11.6991 16.4581 11.9072C16.9853 12.1162 17.4413 12.4036 17.814 12.7603C18.1703 13.1016 18.4877 13.5159 18.7579 13.9922C19.0182 14.4511 19.2289 14.9292 19.3839 15.4139C19.5337 15.8831 19.6592 16.3959 19.7565 16.9392C19.8525 17.4778 19.9181 17.9883 19.9504 18.4556C19.9827 18.9127 19.9986 19.3894 19.9991 19.8731L20 19.8727Z" fill="#070337"/>
<path d="M9.84854 11.5608H9.84573V0H9.84854C11.4348 0 12.808 0.569531 13.9312 1.69313C15.0535 2.81672 15.6224 4.19203 15.6224 5.77969C15.6224 7.36734 15.0535 8.74312 13.9312 9.86719C12.809 10.9908 11.4353 11.5603 9.84854 11.5603V11.5608Z" fill="#00002E"/>
<path d="M20 19.8727C20 21.1256 19.602 22.1405 18.8178 22.8877C18.0429 23.6259 17.0176 24 15.7712 24H9.84619V13.4278C9.89722 13.4297 9.94826 13.4306 9.99929 13.4306C10.5134 13.4306 11.0335 13.3462 11.5467 13.1803C12.072 13.0106 12.4976 12.8227 12.8113 12.6225C13.1784 12.3877 13.508 12.1753 13.7894 11.9916C14.2463 11.6934 14.4828 11.5931 14.7276 11.5931C15.3503 11.5931 15.9328 11.6986 16.4585 11.9067C16.9857 12.1158 17.4418 12.4031 17.8144 12.7598C18.1707 13.1011 18.4882 13.5155 18.7583 13.9917C19.0187 14.4506 19.2293 14.9287 19.3843 15.4134C19.5341 15.8827 19.6596 16.3955 19.757 16.9387C19.853 17.4773 19.9185 17.9878 19.9508 18.4552C19.9831 18.9122 19.9991 19.3889 19.9995 19.8727H20Z" fill="#00002E"/>
</g>
<defs>
<clipPath id="clip0_137_1361">
<rect width="20" height="24" fill="white"/>
</clipPath>
</defs>
</svg>
