<svg width="936" height="158" viewBox="0 0 936 158" fill="none" xmlns="http://www.w3.org/2000/svg">
<path d="M203.83 99.3009V51.0059C203.83 49.999 204.192 49.134 204.915 48.4111C205.638 47.6881 206.502 47.3267 207.509 47.3267H214.713C215.772 47.3267 216.649 47.6881 217.347 48.4111C218.07 49.134 218.431 49.999 218.431 51.0059V99.2234C218.431 100.23 218.057 101.095 217.308 101.818C216.585 102.515 215.72 102.864 214.713 102.864H207.509C206.502 102.864 205.638 102.528 204.915 101.857C204.192 101.16 203.83 100.308 203.83 99.3009Z" fill="#1A2228"/>
<path d="M229.546 99.2234V51.0059C229.546 49.999 229.895 49.134 230.592 48.4111C231.289 47.6881 232.141 47.3267 233.148 47.3267H244.534C245.438 47.3267 246.393 47.6881 247.4 48.4111C248.407 49.134 249.233 49.999 249.879 51.0059L273.271 86.9851V50.9285C273.271 49.9215 273.62 49.0695 274.317 48.3724C275.04 47.6752 275.905 47.3267 276.912 47.3267H283.573C284.58 47.3267 285.432 47.6752 286.129 48.3724C286.852 49.0695 287.213 49.9473 287.213 51.0059V99.2234C287.213 100.23 286.852 101.095 286.129 101.818C285.432 102.515 284.58 102.864 283.573 102.864H270.715C269.708 102.864 268.675 102.515 267.617 101.818C266.558 101.095 265.719 100.23 265.099 99.2234L243.682 65.994V99.2234C243.682 100.23 243.321 101.095 242.598 101.818C241.901 102.515 241.049 102.864 240.042 102.864H233.225C232.218 102.864 231.354 102.515 230.631 101.818C229.908 101.095 229.546 100.23 229.546 99.2234Z" fill="#1A2228"/>
<path d="M293.565 54.6464V51.0059C293.565 49.9473 293.914 49.0695 294.611 48.3724C295.308 47.6752 296.186 47.3267 297.244 47.3267H346.391C347.45 47.3267 348.328 47.6752 349.025 48.3724C349.722 49.0695 350.07 49.9473 350.07 51.0059V54.6464C350.07 55.705 349.722 56.5829 349.025 57.28C348.328 57.9513 347.45 58.287 346.391 58.287H329.118V99.3009C329.118 100.308 328.757 101.16 328.034 101.857C327.337 102.528 326.485 102.864 325.478 102.864H318.158C317.151 102.864 316.286 102.528 315.563 101.857C314.866 101.16 314.517 100.308 314.517 99.3009V58.287H297.244C296.186 58.287 295.308 57.9513 294.611 57.28C293.914 56.5829 293.565 55.705 293.565 54.6464Z" fill="#1A2228"/>
<path d="M356.422 99.1459V50.9285C356.422 49.9215 356.784 49.0695 357.506 48.3724C358.229 47.6752 359.094 47.3267 360.101 47.3267H404.756C405.763 47.3267 406.615 47.6881 407.312 48.4111C408.035 49.134 408.396 49.999 408.396 51.0059V54.6464C408.396 55.6534 408.035 56.5183 407.312 57.2413C406.615 57.9384 405.763 58.287 404.756 58.287H371.023V69.5571H400.07C401.076 69.5571 401.928 69.9185 402.626 70.6415C403.349 71.3386 403.71 72.1906 403.71 73.1976V76.8381C403.71 77.845 403.349 78.71 402.626 79.4329C401.928 80.1301 401.076 80.4786 400.07 80.4786H371.023V91.9036H404.678C405.659 91.9036 406.499 92.2522 407.196 92.9493C407.893 93.6464 408.241 94.4985 408.241 95.5054V99.2234C408.241 100.23 407.88 101.095 407.157 101.818C406.434 102.515 405.569 102.864 404.562 102.864H360.101C359.094 102.864 358.229 102.515 357.506 101.818C356.784 101.095 356.422 100.205 356.422 99.1459Z" fill="#1A2228"/>
<path d="M473.19 101.199C473.19 102.309 472.531 102.864 471.214 102.864H461.92C460.938 102.864 459.854 102.515 458.666 101.818C457.504 101.095 456.614 100.23 455.994 99.2234L449.41 88.9215C446.699 84.6872 443.42 82.57 439.573 82.57H430.123V99.2234C430.123 100.23 429.762 101.095 429.039 101.818C428.342 102.515 427.49 102.864 426.483 102.864H419.202C418.195 102.864 417.33 102.515 416.607 101.818C415.884 101.095 415.522 100.23 415.522 99.2234V51.0059C415.522 49.999 415.871 49.134 416.568 48.4111C417.265 47.6881 418.117 47.3267 419.124 47.3267H451.075C456.988 47.3267 461.829 48.9146 465.599 52.0903C469.394 55.2661 471.292 59.5521 471.292 64.9483C471.292 72.4617 466.425 77.1737 456.691 79.0844C458.24 79.6524 459.673 80.6335 460.99 82.0278C462.307 83.3962 463.817 85.3972 465.521 88.0307L472.57 99.2234C472.983 99.9463 473.19 100.605 473.19 101.199ZM430.123 71.6097H446.622C449.281 71.6097 451.618 71.0804 453.632 70.0218C455.671 68.9632 456.691 67.2721 456.691 64.9483C456.691 62.6246 455.671 60.9334 453.632 59.8748C451.618 58.8162 449.281 58.287 446.622 58.287H430.123V71.6097Z" fill="#1A2228"/>
<path d="M475.087 99.3009L484.808 62.4309C487.442 52.3873 496.014 47.3525 510.524 47.3267H531.399C532.355 47.3267 533.142 47.6881 533.762 48.4111C534.407 49.134 534.73 49.9732 534.73 50.9285V99.3009C534.73 100.308 534.368 101.16 533.645 101.857C532.923 102.528 532.058 102.864 531.051 102.864H523.77C522.711 102.864 521.833 102.528 521.136 101.857C520.465 101.16 520.129 100.282 520.129 99.2234V89.4637H492.593L489.998 99.2234C489.74 100.282 489.159 101.16 488.255 101.857C487.352 102.528 486.396 102.864 485.389 102.864H477.76C476.753 102.864 476.03 102.58 475.591 102.012C475.152 101.418 474.932 100.902 474.932 100.463C474.958 100.024 475.01 99.6365 475.087 99.3009ZM495.459 78.5034H520.129V58.287H509.091C506.613 58.287 504.444 58.997 502.585 60.417C500.752 61.8113 499.512 63.6961 498.867 66.0715L495.459 78.5034Z" fill="#1A2228"/>
<path d="M549.795 96.3187C545.019 91.7487 542.631 84.6872 542.631 75.134C542.631 65.5551 545.019 58.4806 549.795 53.9106C554.598 49.3148 561.788 47.0168 571.367 47.0168H580.004C585.865 47.0168 591.042 48.5402 595.534 51.5869C600.053 54.6335 602.312 58.8033 602.312 64.0963C602.312 65.6196 601.86 66.7169 600.956 67.3882C600.053 68.0337 599.175 68.3565 598.323 68.3565H593.714C591.339 68.3565 589.493 66.9364 588.176 64.0963C586.265 60.0168 583.089 57.9771 578.648 57.9771H571.755C566.1 57.9771 562.266 59.1906 560.252 61.6176C558.238 64.0447 557.231 68.5372 557.231 75.0953C557.231 81.6534 558.238 86.1589 560.252 88.6117C562.266 91.0387 566.1 92.2522 571.755 92.2522H579.462C583.903 92.2522 587.066 90.2125 588.95 86.133C590.267 83.2671 592.126 81.8341 594.527 81.8341H599.136C600.35 81.8341 601.305 82.286 602.002 83.1896C602.725 84.0933 603.086 85.0744 603.086 86.133C603.086 91.426 600.84 95.5958 596.348 98.6425C591.855 101.663 586.678 103.174 580.817 103.174H571.367C561.788 103.174 554.598 100.889 549.795 96.3187Z" fill="#1A2228"/>
<path d="M605.1 54.6464V51.0059C605.1 49.9473 605.449 49.0695 606.146 48.3724C606.843 47.6752 607.721 47.3267 608.78 47.3267H657.926C658.985 47.3267 659.863 47.6752 660.56 48.3724C661.257 49.0695 661.606 49.9473 661.606 51.0059V54.6464C661.606 55.705 661.257 56.5829 660.56 57.28C659.863 57.9513 658.985 58.287 657.926 58.287H640.653V99.3009C640.653 100.308 640.292 101.16 639.569 101.857C638.872 102.528 638.02 102.864 637.013 102.864H629.693C628.686 102.864 627.821 102.528 627.098 101.857C626.401 101.16 626.053 100.308 626.053 99.3009V58.287H608.78C607.721 58.287 606.843 57.9513 606.146 57.28C605.449 56.5829 605.1 55.705 605.1 54.6464Z" fill="#1A2228"/>
<path d="M667.957 99.3009V51.0059C667.957 49.999 668.319 49.134 669.042 48.4111C669.765 47.6881 670.63 47.3267 671.637 47.3267H678.84C679.899 47.3267 680.777 47.6881 681.474 48.4111C682.197 49.134 682.558 49.999 682.558 51.0059V99.2234C682.558 100.23 682.184 101.095 681.435 101.818C680.712 102.515 679.847 102.864 678.84 102.864H671.637C670.63 102.864 669.765 102.528 669.042 101.857C668.319 101.16 667.957 100.308 667.957 99.3009Z" fill="#1A2228"/>
<path d="M13.1162 111.3V39.7233L0 47.9677V121.044C0 136.034 14.6152 141.655 22.8596 141.655H71.5769V157.394L127.789 125.541H26.2324C18.4376 124.042 13.1162 119.17 13.1162 111.3Z" fill="url(#paint0_linear_407_5052)"/>
<path d="M131.162 30.7294H29.2306L86.5671 0V15.7394H136.783C156.27 17.9879 158.644 33.3526 158.894 40.0981V109.801L144.278 117.296V54.7132C144.278 37.1001 140.156 30.7294 131.162 30.7294Z" fill="url(#paint1_linear_407_5052)"/>
<path d="M94.362 72.3347C98.3981 74.5805 98.4894 80.3533 94.5264 82.7257L76.4307 93.5586C72.4677 95.931 67.4227 93.1237 67.3496 88.5055L67.0159 67.4176C66.9429 62.7994 71.8966 59.8339 75.9326 62.0797L94.362 72.3347Z" fill="url(#paint2_linear_407_5052)"/>
<path d="M695.261 100.23V52.0129C695.261 51.0059 695.61 50.141 696.307 49.418C697.004 48.6951 697.856 48.3336 698.863 48.3336H728.413C744.034 48.3336 751.844 55.5372 751.844 69.9443C751.844 84.3257 744.034 91.5163 728.413 91.5163H709.862V100.23C709.862 101.237 709.5 102.102 708.778 102.825C708.08 103.522 707.228 103.871 706.221 103.871H698.94C697.933 103.871 697.069 103.522 696.346 102.825C695.623 102.102 695.261 101.237 695.261 100.23ZM709.862 80.5561H723.998C728.336 80.5561 731.628 79.8331 733.874 78.3872C736.12 76.9155 737.243 74.1012 737.243 69.9443C737.243 65.7616 736.12 62.9473 733.874 61.5014C731.628 60.0297 728.336 59.2939 723.998 59.2939H709.862V80.5561Z" fill="url(#paint3_linear_407_5052)"/>
<path d="M759.009 100.308V52.0903C759.009 51.0317 759.37 50.141 760.093 49.418C760.816 48.6951 761.681 48.3336 762.688 48.3336H769.969C770.976 48.3336 771.828 48.6951 772.525 49.418C773.248 50.141 773.61 51.0317 773.61 52.0903V92.9106H807.343C808.35 92.9106 809.202 93.272 809.899 93.995C810.622 94.7179 810.983 95.5829 810.983 96.5898V100.23C810.983 101.237 810.622 102.102 809.899 102.825C809.202 103.522 808.35 103.871 807.343 103.871H762.688C761.681 103.871 760.816 103.535 760.093 102.864C759.37 102.167 759.009 101.315 759.009 100.308Z" fill="url(#paint4_linear_407_5052)"/>
<path d="M812.765 100.308L822.486 63.4379C825.119 53.3942 833.691 48.3594 848.202 48.3336H869.076C870.032 48.3336 870.819 48.6951 871.439 49.418C872.084 50.141 872.407 50.9801 872.407 51.9354V100.308C872.407 101.315 872.046 102.167 871.323 102.864C870.6 103.535 869.735 103.871 868.728 103.871H861.447C860.388 103.871 859.51 103.535 858.813 102.864C858.142 102.167 857.806 101.289 857.806 100.23V90.4707H830.27L827.675 100.23C827.417 101.289 826.836 102.167 825.932 102.864C825.029 103.535 824.073 103.871 823.067 103.871H815.437C814.43 103.871 813.707 103.587 813.268 103.019C812.829 102.425 812.61 101.909 812.61 101.47C812.636 101.031 812.687 100.643 812.765 100.308ZM833.136 79.5104H857.806V59.2939H846.769C844.29 59.2939 842.121 60.0039 840.262 61.424C838.429 62.8182 837.19 64.703 836.544 67.0784L833.136 79.5104Z" fill="url(#paint5_linear_407_5052)"/>
<path d="M878.72 50.1926C878.72 48.9533 879.391 48.3336 880.734 48.3336H888.092C891.01 48.3336 893.256 49.56 894.831 52.0129L907.379 71.3386L919.889 52.0129C921.49 49.56 923.736 48.3336 926.628 48.3336H934.025C935.342 48.3336 936 48.9533 936 50.1926C936 50.7606 935.793 51.3674 935.38 52.0129L914.66 84.0417V100.308C914.66 101.315 914.299 102.167 913.576 102.864C912.879 103.535 912.027 103.871 911.02 103.871H903.739C902.732 103.871 901.867 103.535 901.144 102.864C900.421 102.167 900.06 101.315 900.06 100.308V84.0417L879.378 52.0129C878.939 51.3674 878.72 50.7606 878.72 50.1926Z" fill="url(#paint6_linear_407_5052)"/>
<defs>
<linearGradient id="paint0_linear_407_5052" x1="1.20074e-06" y1="44.4204" x2="127.789" y2="152.697" gradientUnits="userSpaceOnUse">
<stop stop-color="#00FFF1"/>
<stop offset="1" stop-color="#2813A4"/>
</linearGradient>
<linearGradient id="paint1_linear_407_5052" x1="44.689" y1="-6.199e-07" x2="143.435" y2="117.296" gradientUnits="userSpaceOnUse">
<stop stop-color="#00FFF1"/>
<stop offset="1" stop-color="#2813A4"/>
</linearGradient>
<linearGradient id="paint2_linear_407_5052" x1="103.443" y1="77.3878" x2="55.096" y2="78.1528" gradientUnits="userSpaceOnUse">
<stop stop-color="#2813A4"/>
<stop offset="1" stop-color="#0F073E"/>
</linearGradient>
<linearGradient id="paint3_linear_407_5052" x1="695.261" y1="76.1022" x2="936" y2="76.1022" gradientUnits="userSpaceOnUse">
<stop stop-color="#00FFF1"/>
<stop offset="1" stop-color="#2813A4"/>
</linearGradient>
<linearGradient id="paint4_linear_407_5052" x1="695.261" y1="76.1022" x2="936" y2="76.1022" gradientUnits="userSpaceOnUse">
<stop stop-color="#00FFF1"/>
<stop offset="1" stop-color="#2813A4"/>
</linearGradient>
<linearGradient id="paint5_linear_407_5052" x1="695.261" y1="76.1022" x2="936" y2="76.1022" gradientUnits="userSpaceOnUse">
<stop stop-color="#00FFF1"/>
<stop offset="1" stop-color="#2813A4"/>
</linearGradient>
<linearGradient id="paint6_linear_407_5052" x1="695.261" y1="76.1022" x2="936" y2="76.1022" gradientUnits="userSpaceOnUse">
<stop stop-color="#00FFF1"/>
<stop offset="1" stop-color="#2813A4"/>
</linearGradient>
</defs>
</svg>
